<svg width="266" height="125" viewBox="0 0 266 125" fill="none" xmlns="http://www.w3.org/2000/svg">
<path d="M161.348 93.2109C162.648 92.5109 162.048 90.3109 160.848 89.9109C159.648 89.4109 158.648 90.5109 158.648 91.8109C158.648 93.1109 160.148 93.9109 161.348 93.2109Z" fill="#0E2E8C"/>
<path d="M262.149 38.3109C263.949 42.2109 264.749 44.9109 265.149 47.2109C265.349 48.2109 265.049 49.0109 264.449 48.8109C263.449 48.6109 263.049 48.0109 261.649 44.1109C260.749 41.5109 258.749 37.4109 256.649 35.9109C255.849 35.3109 254.649 34.7109 253.949 35.0109C253.649 35.2109 253.349 35.3109 253.149 36.3109C252.049 41.2109 257.349 58.0109 262.549 56.2109C263.449 55.6109 263.749 53.5109 263.549 52.6109C263.349 51.5109 265.849 51.7109 265.549 56.0109C265.349 58.9109 263.949 60.3109 261.249 61.3109C257.649 62.7109 224.449 75.7109 220.349 76.1109C216.249 76.5109 212.449 74.1109 210.749 70.6109C209.049 67.2109 209.449 61.4109 215.649 57.2109C221.849 53.0109 249.849 32.8109 252.649 31.6109C255.349 30.5109 260.249 34.4109 262.149 38.3109Z" fill="#4E58E7"/>
<path d="M212.049 76.1109C214.249 77.3109 208.749 78.9109 205.149 78.9109C201.549 78.9109 199.749 75.4109 201.149 72.4109C202.449 69.4109 207.849 65.7109 207.449 67.4109C206.949 70.4109 209.449 74.6109 212.049 76.1109Z" fill="#4E58E7"/>
<path d="M248.249 83.2109C247.849 82.8109 246.949 81.6109 245.949 80.4109C241.249 74.6109 239.849 73.2109 238.549 73.1109H238.449H238.349C238.349 73.1109 238.349 73.1109 238.249 73.1109H238.149C238.049 73.1109 238.049 73.1109 237.949 73.1109H237.849H237.749C237.749 73.1109 237.649 73.1109 237.649 73.2109C237.649 73.2109 237.549 73.2109 237.549 73.3109L237.449 73.4109L237.349 73.5109C222.449 90.3109 211.449 94.4109 198.749 99.1109C195.849 100.211 192.949 101.211 189.749 102.511C189.149 102.811 188.549 103.111 187.949 103.411C184.349 96.9109 184.049 92.3109 183.849 90.2109C183.749 89.1109 183.649 88.0109 182.549 87.7109C181.449 87.4109 180.749 88.3109 180.149 89.2109C179.349 90.4109 178.049 93.0109 176.349 96.3109C173.849 101.211 168.149 112.811 166.049 113.211C164.949 112.711 163.749 107.111 163.249 104.711C162.349 100.411 162.049 98.6109 160.449 98.4109C159.949 98.3109 159.049 98.4109 158.449 99.7109L158.049 100.511C155.949 104.711 150.449 116.011 141.749 116.211C135.949 115.911 131.549 101.711 131.949 84.5109C132.049 82.2109 132.149 79.8109 132.549 77.3109C133.349 76.6109 134.149 75.9109 134.749 75.2109C135.449 74.4109 152.449 56.7109 151.849 46.8109C151.749 44.8109 150.949 43.2109 149.549 42.0109C147.849 40.6109 145.849 40.3109 143.949 41.2109C137.449 44.2109 131.949 61.6109 129.949 75.8109C122.549 81.7109 108.549 87.2109 103.349 88.5109C100.149 89.3109 94.3492 88.6109 90.0492 87.8109C89.5492 87.7109 88.9492 87.5109 88.4492 87.4109C88.6492 85.9109 88.2492 84.4109 87.4492 83.1109C83.3492 77.1109 68.4492 75.5109 63.5492 75.2109C62.7492 43.7109 59.3492 7.41089 59.3492 7.11089C59.2492 6.31089 58.6492 5.71089 57.8492 5.81089C57.0492 5.91089 56.4492 6.61089 56.5492 7.31089C56.5492 7.71089 59.9492 43.7109 60.7492 75.1109L3.74917 74.9109C4.84917 47.8109 7.04917 23.2109 9.24917 1.61089C9.34917 0.810895 8.74917 0.110904 7.94917 0.010904C7.14917 -0.089096 6.44916 0.510892 6.34916 1.31089C2.94916 35.2109 -0.450843 76.1109 0.049157 122.711C0.049157 123.511 0.649166 124.111 1.44917 124.111C2.24917 124.111 2.84916 123.511 2.84916 122.711C2.64916 107.011 2.94916 92.1109 3.54916 77.8109C3.54916 77.8109 3.54916 77.8109 3.64916 77.8109L60.7492 78.0109C61.4492 108.711 61.4492 122.911 61.4492 123.011C61.4492 123.811 62.0492 124.411 62.8492 124.411C63.6492 124.411 64.2492 123.811 64.2492 123.011C64.2492 122.911 64.2492 108.711 63.5492 78.1109C69.6492 78.6109 82.0492 80.4109 85.0492 84.8109C85.5492 85.5109 85.7492 86.2109 85.6492 86.9109C85.1492 86.8109 84.6492 86.7109 84.1492 86.7109C83.3492 86.6109 82.7492 87.1109 82.5492 87.8109C82.4492 88.5109 82.8492 89.3109 83.6492 89.4109C83.7492 89.4109 84.1492 89.5109 84.7492 89.7109C84.2492 90.9109 83.7492 92.2109 83.2492 93.5109C79.5492 102.511 74.8492 113.711 87.7492 120.111C90.6492 121.511 93.1492 122.111 95.3492 122.111C99.4492 122.111 102.349 120.211 104.049 118.611C108.549 114.411 110.449 107.111 108.349 101.911C106.649 97.6109 103.549 94.2109 99.3492 91.6109C101.149 91.6109 102.749 91.5109 104.149 91.2109C109.149 90.0109 121.449 85.2109 129.549 79.6109C129.349 81.3109 129.249 82.9109 129.249 84.4109C128.849 101.311 133.049 118.611 141.849 119.011C151.549 118.811 157.449 108.311 160.049 103.011C160.249 103.811 160.349 104.611 160.549 105.311C161.649 110.811 162.849 116.511 166.349 116.111C169.349 115.811 172.749 109.911 178.949 97.6109C179.849 95.8109 180.649 94.2109 181.349 92.9109C181.749 95.6109 182.749 99.7109 185.549 104.811C182.049 107.211 180.349 109.611 180.649 112.111C180.849 114.311 182.749 116.111 185.449 116.811C188.149 117.511 190.649 116.911 191.849 115.111C192.749 113.811 193.249 111.311 190.449 107.211C190.149 106.711 189.849 106.311 189.549 105.811C190.049 105.611 190.449 105.311 191.049 105.011C194.149 103.811 197.049 102.711 199.849 101.611C212.349 97.0109 223.149 93.0109 237.449 77.7109L238.149 85.6109C238.249 86.3109 238.849 86.9109 239.549 86.9109H239.649C240.449 86.8109 241.049 86.1109 240.949 85.4109L240.249 77.8109C241.549 79.2109 242.949 81.0109 243.849 82.1109C244.949 83.5109 245.849 84.6109 246.349 85.1109C246.649 85.4109 246.949 85.5109 247.349 85.5109C247.749 85.5109 248.049 85.4109 248.349 85.1109C248.749 84.6109 248.749 83.7109 248.249 83.2109ZM145.149 43.8109C145.449 43.6109 145.849 43.6109 146.149 43.6109C146.649 43.6109 147.249 43.8109 147.749 44.3109C148.549 45.0109 148.949 45.9109 149.049 47.1109C149.449 54.0109 138.349 67.4109 133.249 72.8109C135.549 59.6109 140.449 46.0109 145.149 43.8109ZM105.749 103.111C107.449 107.211 105.749 113.211 102.149 116.611C98.7492 119.811 94.0492 120.111 89.0492 117.611C78.5492 112.311 82.1492 103.711 85.9492 94.6109C86.5492 93.2109 87.1492 91.7109 87.6492 90.3109C88.2492 90.4109 88.8492 90.5109 89.5492 90.6109C97.7492 92.8109 103.249 97.1109 105.749 103.111ZM189.449 113.611C188.949 114.311 187.549 114.511 186.049 114.111C184.749 113.811 183.449 112.911 183.349 111.811C183.249 111.311 183.449 109.611 186.949 107.311C187.249 107.811 187.649 108.311 187.949 108.911C189.449 111.011 189.949 112.811 189.449 113.611Z" fill="#4E58E7"/>
</svg>
